<svg viewBox="0 0 24 24" xmlns="http://www.w3.org/2000/svg" id="right-square" class="icon glyph" fill="#000000" transform="matrix(-1, 0, 0, 1, 0, 0)"><g id="SVGRepo_bgCarrier" stroke-width="0"></g><g id="SVGRepo_tracerCarrier" stroke-linecap="round" stroke-linejoin="round"></g><g id="SVGRepo_iconCarrier"><path d="M20,2H4A2,2,0,0,0,2,4V20a2,2,0,0,0,2,2H20a2,2,0,0,0,2-2V4A2,2,0,0,0,20,2ZM15.62,12.78l-5,4A1,1,0,0,1,10,17a1,1,0,0,1-.78-.38,1,1,0,0,1,.16-1.4l4-3.22-4-3.22a1,1,0,0,1,1.24-1.56l5,4a1,1,0,0,1,0,1.56Z" style="fill:#fff"></path></g></svg>